<mxfile host="app.diagrams.net" modified="2024-06-05T02:01:26.499Z" agent="Mozilla/5.0 (Windows NT 10.0; Win64; x64) AppleWebKit/537.36 (KHTML, like Gecko) Chrome/125.0.0.0 Safari/537.36" etag="U2jx1voQV0BIIq3lbOiW" version="24.4.13" type="device" pages="5">
  <diagram name="Page-1" id="YQM8bPAJMyX4pTJn_LE7">
    <mxGraphModel dx="1450" dy="570" grid="0" gridSize="10" guides="1" tooltips="1" connect="1" arrows="1" fold="1" page="0" pageScale="1" pageWidth="850" pageHeight="1100" math="0" shadow="0">
      <root>
        <mxCell id="0" />
        <mxCell id="1" parent="0" />
        <mxCell id="C_-azYu48PYWdeCWMKFk-8" value="" style="rounded=0;whiteSpace=wrap;html=1;" parent="1" vertex="1">
          <mxGeometry x="123" y="199" width="360" height="430" as="geometry" />
        </mxCell>
        <mxCell id="C_-azYu48PYWdeCWMKFk-9" value="&lt;a href=&quot;data:page/id,cV40O1l32njYB5TDYaKX&quot;&gt;Podnosenje zahtjeva za složenu turu&lt;/a&gt;" style="ellipse;whiteSpace=wrap;html=1;" parent="1" vertex="1">
          <mxGeometry x="160" y="265" width="120" height="80" as="geometry" />
        </mxCell>
        <mxCell id="C_-azYu48PYWdeCWMKFk-10" value="&amp;lt;&amp;lt;include&amp;gt;&amp;gt;" style="html=1;verticalAlign=bottom;labelBackgroundColor=none;endArrow=open;endFill=0;dashed=1;rounded=0;fontSize=12;startSize=8;endSize=8;curved=1;exitX=1;exitY=0.5;exitDx=0;exitDy=0;" parent="1" source="C_-azYu48PYWdeCWMKFk-9" target="C_-azYu48PYWdeCWMKFk-11" edge="1">
          <mxGeometry width="160" relative="1" as="geometry">
            <mxPoint x="231" y="375" as="sourcePoint" />
            <mxPoint x="391" y="375" as="targetPoint" />
          </mxGeometry>
        </mxCell>
        <mxCell id="C_-azYu48PYWdeCWMKFk-11" value="&lt;a href=&quot;data:page/id,T8H7jXfyIOYYnm2ZhJg8&quot;&gt;Unos segmenta zahtjeva&lt;/a&gt;" style="ellipse;whiteSpace=wrap;html=1;" parent="1" vertex="1">
          <mxGeometry x="331" y="335" width="120" height="80" as="geometry" />
        </mxCell>
        <mxCell id="C_-azYu48PYWdeCWMKFk-18" style="edgeStyle=none;curved=1;rounded=0;orthogonalLoop=1;jettySize=auto;html=1;fontSize=12;startSize=8;endSize=8;endArrow=none;endFill=0;exitX=0.5;exitY=0.5;exitDx=0;exitDy=0;exitPerimeter=0;" parent="1" source="C_-azYu48PYWdeCWMKFk-13" target="C_-azYu48PYWdeCWMKFk-17" edge="1">
          <mxGeometry relative="1" as="geometry" />
        </mxCell>
        <mxCell id="C_-azYu48PYWdeCWMKFk-13" value="Turista" style="shape=umlActor;verticalLabelPosition=bottom;verticalAlign=top;html=1;outlineConnect=0;" parent="1" vertex="1">
          <mxGeometry x="-64" y="339" width="30" height="60" as="geometry" />
        </mxCell>
        <mxCell id="C_-azYu48PYWdeCWMKFk-16" value="" style="endArrow=none;html=1;rounded=0;fontSize=12;startSize=8;endSize=8;curved=1;exitX=1;exitY=0.3333333333333333;exitDx=0;exitDy=0;exitPerimeter=0;entryX=0;entryY=0.5;entryDx=0;entryDy=0;" parent="1" source="C_-azYu48PYWdeCWMKFk-13" target="C_-azYu48PYWdeCWMKFk-9" edge="1">
          <mxGeometry width="50" height="50" relative="1" as="geometry">
            <mxPoint x="-1" y="385" as="sourcePoint" />
            <mxPoint x="49" y="335" as="targetPoint" />
          </mxGeometry>
        </mxCell>
        <mxCell id="C_-azYu48PYWdeCWMKFk-17" value="&lt;a href=&quot;data:page/id,kEWZ3IRIIIGPn_FEGyi2&quot;&gt;Pregled zahtjeva&lt;/a&gt;" style="ellipse;whiteSpace=wrap;html=1;" parent="1" vertex="1">
          <mxGeometry x="160" y="367" width="120" height="80" as="geometry" />
        </mxCell>
        <mxCell id="yPyx0tPd48tuBDb014Hb-1" value="&lt;a href=&quot;data:page/id,cGb0SG-qg8X3PU1lwvm5&quot;&gt;Osvajanje vaučera&lt;/a&gt;" style="ellipse;whiteSpace=wrap;html=1;" parent="1" vertex="1">
          <mxGeometry x="165" y="489" width="120" height="80" as="geometry" />
        </mxCell>
        <mxCell id="NGZMaAuaCoO7f7DfCzlA-1" style="edgeStyle=none;curved=1;rounded=0;orthogonalLoop=1;jettySize=auto;html=1;fontSize=12;startSize=8;endSize=8;endArrow=none;endFill=0;exitX=1;exitY=1;exitDx=0;exitDy=0;exitPerimeter=0;entryX=0;entryY=0.5;entryDx=0;entryDy=0;" parent="1" source="C_-azYu48PYWdeCWMKFk-13" target="yPyx0tPd48tuBDb014Hb-1" edge="1">
          <mxGeometry relative="1" as="geometry">
            <mxPoint x="-41" y="454" as="sourcePoint" />
            <mxPoint x="154" y="482" as="targetPoint" />
          </mxGeometry>
        </mxCell>
      </root>
    </mxGraphModel>
  </diagram>
  <diagram id="cV40O1l32njYB5TDYaKX" name="Page-2">
    <mxGraphModel dx="1450" dy="970" grid="0" gridSize="10" guides="1" tooltips="1" connect="1" arrows="1" fold="1" page="0" pageScale="1" pageWidth="850" pageHeight="1100" math="0" shadow="0">
      <root>
        <mxCell id="0" />
        <mxCell id="1" parent="0" />
        <mxCell id="xl1YUpNngr0kodKx7UwY-1" value="&lt;div&gt;&lt;b&gt;Preduslovi:&lt;/b&gt;&lt;/div&gt;" style="text;html=1;align=center;verticalAlign=middle;resizable=0;points=[];autosize=1;strokeColor=none;fillColor=none;fontSize=16;" parent="1" vertex="1">
          <mxGeometry x="-129" y="-237" width="105" height="31" as="geometry" />
        </mxCell>
        <mxCell id="xl1YUpNngr0kodKx7UwY-2" value="- Korisnik je ulogovan" style="text;html=1;align=center;verticalAlign=middle;resizable=0;points=[];autosize=1;strokeColor=none;fillColor=none;fontSize=16;" parent="1" vertex="1">
          <mxGeometry x="-134" y="-206" width="171" height="31" as="geometry" />
        </mxCell>
        <mxCell id="xl1YUpNngr0kodKx7UwY-3" value="&lt;div&gt;&lt;b&gt;Posljedice:&lt;/b&gt;&lt;/div&gt;" style="text;html=1;align=center;verticalAlign=middle;resizable=0;points=[];autosize=1;strokeColor=none;fillColor=none;fontSize=16;" parent="1" vertex="1">
          <mxGeometry x="-126" y="-134" width="102" height="31" as="geometry" />
        </mxCell>
        <mxCell id="xl1YUpNngr0kodKx7UwY-4" value="- Sistem cuva uneti zahtjev, a zahtjevi su vidljivi vodičima&lt;div&gt;- Turista moze da vidi zahtjev u svojim zahtjevima za ture&lt;/div&gt;" style="text;html=1;align=left;verticalAlign=middle;resizable=0;points=[];autosize=1;strokeColor=none;fillColor=none;fontSize=16;" parent="1" vertex="1">
          <mxGeometry x="-129" y="-103" width="423" height="50" as="geometry" />
        </mxCell>
        <mxCell id="xl1YUpNngr0kodKx7UwY-6" value="&lt;div&gt;&lt;b&gt;Osnovni tok izvršavanja:&lt;/b&gt;&lt;/div&gt;" style="text;html=1;align=center;verticalAlign=middle;resizable=0;points=[];autosize=1;strokeColor=none;fillColor=none;fontSize=16;" parent="1" vertex="1">
          <mxGeometry x="-134" y="-21" width="207" height="31" as="geometry" />
        </mxCell>
        <mxCell id="xl1YUpNngr0kodKx7UwY-8" value="- Otvaranje forme za unos&lt;div&gt;&lt;a href=&quot;data:page/id,T8H7jXfyIOYYnm2ZhJg8&quot;&gt;- UKLJUČUJE: Unos segmenta ture&lt;/a&gt;&lt;/div&gt;&lt;div&gt;- Cuvanje zahtjeva&lt;/div&gt;" style="text;html=1;align=left;verticalAlign=middle;resizable=0;points=[];autosize=1;strokeColor=none;fillColor=none;fontSize=16;" parent="1" vertex="1">
          <mxGeometry x="-134" y="10" width="273" height="70" as="geometry" />
        </mxCell>
      </root>
    </mxGraphModel>
  </diagram>
  <diagram id="T8H7jXfyIOYYnm2ZhJg8" name="Page-3">
    <mxGraphModel dx="1450" dy="970" grid="0" gridSize="10" guides="1" tooltips="1" connect="1" arrows="1" fold="1" page="0" pageScale="1" pageWidth="850" pageHeight="1100" math="0" shadow="0">
      <root>
        <mxCell id="0" />
        <mxCell id="1" parent="0" />
        <mxCell id="_agythzJR_fPXSHjDpap-1" value="&lt;div&gt;&lt;b&gt;Preduslovi:&lt;/b&gt;&lt;/div&gt;" style="text;html=1;align=center;verticalAlign=middle;resizable=0;points=[];autosize=1;strokeColor=none;fillColor=none;fontSize=16;" parent="1" vertex="1">
          <mxGeometry x="-56" y="-363" width="105" height="31" as="geometry" />
        </mxCell>
        <mxCell id="_agythzJR_fPXSHjDpap-2" value="- Korisnik je ulogovan.&lt;div&gt;- Korisnik se nalazi u formi za unos zahtjeva.&lt;/div&gt;" style="text;html=1;align=left;verticalAlign=middle;resizable=0;points=[];autosize=1;strokeColor=none;fillColor=none;fontSize=16;" parent="1" vertex="1">
          <mxGeometry x="-56" y="-332" width="335" height="50" as="geometry" />
        </mxCell>
        <mxCell id="_agythzJR_fPXSHjDpap-3" value="&lt;div&gt;&lt;b&gt;Posljedice:&lt;/b&gt;&lt;/div&gt;" style="text;html=1;align=center;verticalAlign=middle;resizable=0;points=[];autosize=1;strokeColor=none;fillColor=none;fontSize=16;" parent="1" vertex="1">
          <mxGeometry x="-58" y="-275" width="102" height="31" as="geometry" />
        </mxCell>
        <mxCell id="_agythzJR_fPXSHjDpap-4" value="- Sistem cuva unijeti obicni zahtjev. Zahtjevi su vidljivi vodičima.&lt;div&gt;- Turista vidi zahtjev u svojim zahtjevima za ture,&lt;/div&gt;" style="text;html=1;align=left;verticalAlign=middle;resizable=0;points=[];autosize=1;strokeColor=none;fillColor=none;fontSize=16;" parent="1" vertex="1">
          <mxGeometry x="-56" y="-235" width="467" height="50" as="geometry" />
        </mxCell>
        <mxCell id="_agythzJR_fPXSHjDpap-5" value="&lt;div&gt;&lt;b&gt;Osnovni tok izvršavanja:&lt;/b&gt;&lt;/div&gt;" style="text;html=1;align=center;verticalAlign=middle;resizable=0;points=[];autosize=1;strokeColor=none;fillColor=none;fontSize=16;" parent="1" vertex="1">
          <mxGeometry x="-56" y="-185" width="207" height="31" as="geometry" />
        </mxCell>
        <mxCell id="_agythzJR_fPXSHjDpap-6" value="- Turista unosi podatke o segmentu ture&lt;div&gt;&lt;br&gt;&lt;/div&gt;" style="text;html=1;align=left;verticalAlign=middle;resizable=0;points=[];autosize=1;strokeColor=none;fillColor=none;fontSize=16;" parent="1" vertex="1">
          <mxGeometry x="-56" y="-154" width="300" height="50" as="geometry" />
        </mxCell>
        <mxCell id="DGVH7Vc-n797IZAcPCqg-2" value="" style="rounded=0;whiteSpace=wrap;html=1;" parent="1" vertex="1">
          <mxGeometry x="-56" y="-104" width="250" height="165" as="geometry" />
        </mxCell>
        <mxCell id="DGVH7Vc-n797IZAcPCqg-4" value="Podaci o segmentu ture" style="text;html=1;align=center;verticalAlign=middle;whiteSpace=wrap;rounded=0;fontSize=16;" parent="1" vertex="1">
          <mxGeometry x="-56" y="-96.5" width="224" height="30" as="geometry" />
        </mxCell>
        <mxCell id="DGVH7Vc-n797IZAcPCqg-5" value="- Lokacija&lt;div&gt;- Opis&lt;/div&gt;&lt;div&gt;- Jezik&lt;/div&gt;&lt;div&gt;- Broj ljudi i informacije o njima&lt;/div&gt;&lt;div&gt;- Opseg datuma&lt;/div&gt;" style="text;html=1;align=left;verticalAlign=middle;whiteSpace=wrap;rounded=0;fontSize=16;" parent="1" vertex="1">
          <mxGeometry x="-43" y="-66.5" width="224" height="109" as="geometry" />
        </mxCell>
      </root>
    </mxGraphModel>
  </diagram>
  <diagram id="kEWZ3IRIIIGPn_FEGyi2" name="Page-4">
    <mxGraphModel dx="1450" dy="970" grid="0" gridSize="10" guides="1" tooltips="1" connect="1" arrows="1" fold="1" page="0" pageScale="1" pageWidth="850" pageHeight="1100" math="0" shadow="0">
      <root>
        <mxCell id="0" />
        <mxCell id="1" parent="0" />
        <mxCell id="kNjKYUPKigjcozJmv21t-1" value="&lt;div&gt;&lt;b&gt;Preduslovi:&lt;/b&gt;&lt;/div&gt;" style="text;html=1;align=center;verticalAlign=middle;resizable=0;points=[];autosize=1;strokeColor=none;fillColor=none;fontSize=16;" parent="1" vertex="1">
          <mxGeometry x="-159" y="-144" width="105" height="31" as="geometry" />
        </mxCell>
        <mxCell id="kNjKYUPKigjcozJmv21t-2" value="- Korisnik je ulogovan u sistem.&lt;div&gt;- Korisnik ima zahtjeve za turu&lt;/div&gt;" style="text;html=1;align=left;verticalAlign=middle;resizable=0;points=[];autosize=1;strokeColor=none;fillColor=none;fontSize=16;" parent="1" vertex="1">
          <mxGeometry x="-159" y="-117" width="239" height="50" as="geometry" />
        </mxCell>
        <mxCell id="kNjKYUPKigjcozJmv21t-3" value="&lt;div&gt;&lt;b&gt;Posljedice:&lt;/b&gt;&lt;/div&gt;" style="text;html=1;align=center;verticalAlign=middle;resizable=0;points=[];autosize=1;strokeColor=none;fillColor=none;fontSize=16;" parent="1" vertex="1">
          <mxGeometry x="-159" y="-48" width="102" height="31" as="geometry" />
        </mxCell>
        <mxCell id="kNjKYUPKigjcozJmv21t-4" value="- Turista prati stanje svakog zahtjeva za turu&lt;div&gt;- Zahtjevi koji nisu prihvaćeni 48h pre početnog datuma bivaju otkazani&lt;/div&gt;&lt;div&gt;&lt;span style=&quot;white-space: pre;&quot;&gt;&#x9;&lt;/span&gt;(prelaze iz stanja WAITING u CANCELLED)&lt;br&gt;&lt;/div&gt;" style="text;html=1;align=left;verticalAlign=middle;resizable=0;points=[];autosize=1;strokeColor=none;fillColor=none;fontSize=16;" parent="1" vertex="1">
          <mxGeometry x="-159" y="-13" width="521" height="70" as="geometry" />
        </mxCell>
        <mxCell id="kNjKYUPKigjcozJmv21t-5" value="&lt;div&gt;&lt;b&gt;Osnovni tok izvršavanja:&lt;/b&gt;&lt;/div&gt;" style="text;html=1;align=center;verticalAlign=middle;resizable=0;points=[];autosize=1;strokeColor=none;fillColor=none;fontSize=16;" parent="1" vertex="1">
          <mxGeometry x="-159" y="79" width="207" height="31" as="geometry" />
        </mxCell>
        <mxCell id="kNjKYUPKigjcozJmv21t-6" value="&lt;div&gt;- Sistem provjerava da li neki zahtjev treba da počne u narednih 48h&lt;/div&gt;&lt;div&gt;&lt;span style=&quot;white-space: pre;&quot;&gt;&#x9;&lt;/span&gt;- Treba - Alternativni tok 1&amp;nbsp;&lt;/div&gt;&lt;div&gt;- Sistem izlistava zahtjeve korisniku&amp;nbsp;&lt;/div&gt;" style="text;html=1;align=left;verticalAlign=middle;resizable=0;points=[];autosize=1;strokeColor=none;fillColor=none;fontSize=16;" parent="1" vertex="1">
          <mxGeometry x="-159" y="110" width="501" height="70" as="geometry" />
        </mxCell>
        <mxCell id="kNjKYUPKigjcozJmv21t-7" value="&lt;b&gt;Alternativni tok 1&amp;nbsp;&lt;/b&gt;" style="text;html=1;align=center;verticalAlign=middle;resizable=0;points=[];autosize=1;strokeColor=none;fillColor=none;fontSize=16;" parent="1" vertex="1">
          <mxGeometry x="-159" y="191" width="152" height="31" as="geometry" />
        </mxCell>
        <mxCell id="kNjKYUPKigjcozJmv21t-9" value="- Sistem odbija zahtjev ako nije prihvacen&lt;div&gt;- Sistem odbija zahtjev ako bilo koji dio ture nije prihvacen&lt;/div&gt;" style="text;html=1;align=left;verticalAlign=middle;resizable=0;points=[];autosize=1;strokeColor=none;fillColor=none;fontSize=16;" parent="1" vertex="1">
          <mxGeometry x="-159" y="225" width="428" height="50" as="geometry" />
        </mxCell>
      </root>
    </mxGraphModel>
  </diagram>
  <diagram id="cGb0SG-qg8X3PU1lwvm5" name="Page-5">
    <mxGraphModel dx="1050" dy="570" grid="1" gridSize="10" guides="1" tooltips="1" connect="1" arrows="1" fold="1" page="1" pageScale="1" pageWidth="850" pageHeight="1100" math="0" shadow="0">
      <root>
        <mxCell id="0" />
        <mxCell id="1" parent="0" />
        <mxCell id="NzS3-3tzFn4x_z7iYvyk-1" value="&lt;div&gt;&lt;b&gt;Preduslovi:&lt;/b&gt;&lt;/div&gt;" style="text;html=1;align=center;verticalAlign=middle;resizable=0;points=[];autosize=1;strokeColor=none;fillColor=none;fontSize=16;" parent="1" vertex="1">
          <mxGeometry x="171" y="120" width="105" height="31" as="geometry" />
        </mxCell>
        <mxCell id="NzS3-3tzFn4x_z7iYvyk-2" value="- Korisnik je ulogovan u sistem." style="text;html=1;align=left;verticalAlign=middle;resizable=0;points=[];autosize=1;strokeColor=none;fillColor=none;fontSize=16;" parent="1" vertex="1">
          <mxGeometry x="100" y="152" width="240" height="30" as="geometry" />
        </mxCell>
        <mxCell id="NzS3-3tzFn4x_z7iYvyk-3" value="&lt;div&gt;&lt;b&gt;Posljedice:&lt;/b&gt;&lt;/div&gt;" style="text;html=1;align=center;verticalAlign=middle;resizable=0;points=[];autosize=1;strokeColor=none;fillColor=none;fontSize=16;" parent="1" vertex="1">
          <mxGeometry x="165" y="224" width="110" height="30" as="geometry" />
        </mxCell>
        <mxCell id="NzS3-3tzFn4x_z7iYvyk-4" value="- Korisnik osvaja vaucer koji je validan u narednih 6 meseci&lt;div&gt;i moze ga iskoristiti za druge ture&lt;/div&gt;" style="text;html=1;align=left;verticalAlign=middle;resizable=0;points=[];autosize=1;strokeColor=none;fillColor=none;fontSize=16;" parent="1" vertex="1">
          <mxGeometry x="90" y="254" width="440" height="50" as="geometry" />
        </mxCell>
        <mxCell id="NzS3-3tzFn4x_z7iYvyk-5" value="&lt;div&gt;&lt;b&gt;Osnovni tok izvršavanja:&lt;/b&gt;&lt;/div&gt;" style="text;html=1;align=center;verticalAlign=middle;resizable=0;points=[];autosize=1;strokeColor=none;fillColor=none;fontSize=16;" parent="1" vertex="1">
          <mxGeometry x="150" y="345" width="207" height="31" as="geometry" />
        </mxCell>
        <mxCell id="NzS3-3tzFn4x_z7iYvyk-6" value="&lt;div&gt;- Sistem učitava rezervacije korisnika&lt;br&gt;&lt;div&gt;- Sistem provjerava da li je korisnik bio prisutan na 5 tura u posljednjih godinu dana&lt;/div&gt;&lt;div&gt;- Sistem provjerava da li je korisnik već dobio vaučer za te ture&lt;/div&gt;&lt;div&gt;- Turista dobija ili ne dobija vaučer u zavisnosti od navedenih uslova&lt;/div&gt;&lt;/div&gt;" style="text;html=1;align=left;verticalAlign=middle;resizable=0;points=[];autosize=1;strokeColor=none;fillColor=none;fontSize=16;" parent="1" vertex="1">
          <mxGeometry x="90" y="376" width="610" height="90" as="geometry" />
        </mxCell>
      </root>
    </mxGraphModel>
  </diagram>
</mxfile>
